<svg width="208" height="132" viewBox="0 0 208 132" fill="none" xmlns="http://www.w3.org/2000/svg">
<path d="M18.8315 97.7153C14.4976 93.4564 8.21751 88.9911 6.26183 82.9792C4.17076 76.551 6.66633 69.6045 9.45551 63.8134C12.3008 57.9059 16.339 51.8519 22.3474 48.8705C29.6107 45.2665 38.8639 46.6889 46.1682 49.4316C62.9475 55.7321 65.3987 77.9144 57.2142 92.2815C52.5155 100.53 45.2526 105.604 35.7375 105.482C25.7222 105.353 13.043 101.653 6.96503 92.9017C2.8404 86.9628 5.00644 80.0488 7.69752 73.9721C10.7882 66.9932 15.4726 60.6837 21.6735 56.1943C33.0209 47.979 55.1717 51.7876 63.1914 63.2818C67.4722 69.4172 66.1033 77.9634 63.2207 84.3671C58.5522 94.7382 47.3115 102.542 36.47 104.921C25.4387 107.341 16.498 103.389 11.8581 92.754C9.15802 86.565 8.99536 79.8019 11.9753 73.7949" stroke="#384A73" stroke-width="7.85249" stroke-linecap="round"/>
<path d="M126.722 29.4392C122.931 37.286 117.488 44.6167 112.802 51.96C103.778 66.0985 93.6111 79.5198 83.6403 92.9926C81.8452 95.4181 79.9799 97.7889 78.2662 100.273C77.4472 101.461 79.6533 97.7396 80.4393 96.5299C87.871 85.0918 95.7582 73.9335 103.434 62.6603C109.675 53.4927 116.015 44.3284 123.198 35.8653C123.922 35.0113 128.503 28.7259 126.78 33.625C121.673 48.151 112.747 62.2604 103.815 74.6576C100.268 79.5809 96.4201 84.3901 92.0099 88.5709C90.6891 89.823 90.1248 90.2128 88.6621 90.4575" stroke="#466EC8" stroke-width="7.85249" stroke-linecap="round"/>
<path d="M77.1949 47.2034C78.66 45.6454 79.8353 46.8426 81.3998 47.9132C85.7429 50.8854 89.9954 54.0025 94.3065 57.0223C106.778 65.7578 119.368 74.1166 132.56 81.6876C136.003 83.6641 139.463 85.6813 142.605 88.1349C142.624 88.1503 144.609 89.886 143.072 89.4362C140.867 88.791 138.935 86.2972 137.348 84.8226C133.076 80.8519 128.626 77.1687 123.858 73.8207C112.02 65.5101 99.3028 58.4573 87.1816 50.575C84.0928 48.5664 81.026 46.5055 77.8373 44.66C77.774 44.6234 75.3123 43.1542 75.7933 43.1813C78.1256 43.3125 80.7217 45.0559 82.6262 46.1979C88.914 49.9682 94.8272 54.3799 100.848 58.5602C110.601 65.3324 120.681 71.3937 130.807 77.5472" stroke="#466EC8" stroke-width="7.85249" stroke-linecap="round"/>
<path d="M166.292 82.0052C157.432 79.3727 148.245 73.7713 145.099 64.5451C142.465 56.8191 145.056 47.6045 149.825 41.3237C155.741 33.532 164.813 29.7276 174.569 29.4484C186.265 29.1138 196.75 37.9326 201.339 48.2607C206.037 58.8354 202.052 71.1342 193.414 78.4779C184.127 86.3727 164.954 88.2589 158.132 76.0088C153.874 68.3644 154.258 56.5537 161.39 50.7886C167.109 46.1657 173.878 48.4195 180.029 50.7886" stroke="#384A73" stroke-width="7.85249" stroke-linecap="round"/>
<path d="M35.994 23.1026C41.6126 18.6988 46.9411 11.6869 44.9045 4.00518C44.7093 3.26889 48.2839 8.74747 48.9219 9.95155C50.9353 13.751 55.4664 15.7854 59.7479 15.0221C62.3971 14.5497 57.5901 18.0731 56.9476 19.0375C54.3144 22.9901 54.3789 27.0291 53.4064 31.4119C53.3195 31.8039 50.2202 29.5552 49.7609 29.3211C47.7488 28.2958 45.0561 27.1646 42.8208 26.7539C39.8174 26.202 35.5585 26.4444 33.1092 24.6718" stroke="#9AACDB" stroke-width="4.31887" stroke-linecap="round"/>
<path d="M164.276 110.701C167.391 112.144 169.614 109.314 171.308 106.788C172.078 105.64 173.666 100.534 172.734 103.458C171.507 107.307 172.832 111.672 175.728 114.401C176.911 115.516 178.215 116.593 179.278 117.829C179.954 118.616 179.889 120.153 180.882 120.662C181.661 121.061 181.034 119.665 180.382 119.44C178.746 118.877 176.99 119.672 175.587 120.48C172.395 122.32 170.676 124.372 170.166 128.075C169.8 130.731 168.365 121.903 167.856 120.659C166.77 118.004 165.417 115.332 163.612 113.095C162.383 111.572 161.392 111.048 161.41 109.232" stroke="#9AACDB" stroke-width="4.31887" stroke-linecap="round"/>
</svg>
