<svg width="21" height="20" viewBox="0 0 21 20" fill="none" xmlns="http://www.w3.org/2000/svg">
<path d="M13.2432 0C17.0402 4.12312e-05 20.1182 3.07807 20.1182 6.875V13.125C20.1182 16.922 17.0402 20 13.2432 20H6.99316C3.19621 20 0.118164 16.922 0.118164 13.125V6.875C0.118164 3.07805 3.19621 0 6.99316 0H13.2432ZM8.71191 3.39844C8.36674 3.39844 8.08691 3.69925 8.08691 4.07031V16.1641C8.08691 16.5352 8.36674 16.8359 8.71191 16.8359C9.05705 16.8359 9.33691 16.5351 9.33691 16.1641V4.07031C9.33691 3.69928 9.05705 3.39848 8.71191 3.39844ZM11.5244 3.28125C11.1792 3.28125 10.8994 3.58206 10.8994 3.95312V16.0469C10.8994 16.418 11.1792 16.7188 11.5244 16.7188C11.8696 16.7187 12.1494 16.4179 12.1494 16.0469V3.95312C12.1494 3.58209 11.8696 3.28129 11.5244 3.28125ZM6.05566 5.46875C5.71049 5.46875 5.43066 5.76479 5.43066 6.12988V13.4014C5.43066 13.7665 5.71049 14.0625 6.05566 14.0625C6.4008 14.0625 6.68066 13.7664 6.68066 13.4014V6.12988C6.68066 5.76482 6.4008 5.46879 6.05566 5.46875ZM14.1807 5.46875C13.8355 5.46875 13.5557 5.76479 13.5557 6.12988V13.4014C13.5557 13.7665 13.8355 14.0625 14.1807 14.0625C14.5258 14.0625 14.8057 13.7664 14.8057 13.4014V6.12988C14.8057 5.76482 14.5258 5.46879 14.1807 5.46875ZM3.39941 8.125C3.05424 8.125 2.77441 8.41881 2.77441 8.78125V10.75C2.77441 11.1124 3.05424 11.4062 3.39941 11.4062C3.74455 11.4062 4.02441 11.1124 4.02441 10.75V8.78125C4.02441 8.41884 3.74455 8.12504 3.39941 8.125ZM16.8369 8.125C16.4918 8.125 16.2119 8.41881 16.2119 8.78125V10.75C16.2119 11.1124 16.4918 11.4062 16.8369 11.4062C17.182 11.4062 17.4619 11.1124 17.4619 10.75V8.78125C17.4619 8.41884 17.182 8.12504 16.8369 8.125Z" fill="white"/>
</svg>
